<?xml version="1.0" standalone="no"?>
<!DOCTYPE svg PUBLIC "-//W3C//DTD SVG 20010904//EN"
 "http://www.w3.org/TR/2001/REC-SVG-20010904/DTD/svg10.dtd">
<svg version="1.0" xmlns="http://www.w3.org/2000/svg"
 width="512.000000pt" height="512.000000pt" viewBox="0 0 512.000000 512.000000"
 preserveAspectRatio="xMidYMid meet">
<metadata>
Created by potrace 1.14, written by Peter Selinger 2001-2017
</metadata>
<g transform="translate(0.000000,512.000000) scale(0.100000,-0.100000)"
fill="#000000" stroke="none">
<path d="M552 4934 c-12 -31 -48 -170 -56 -219 -30 -177 -36 -239 -37 -355 -2
-231 40 -411 127 -547 20 -32 39 -60 43 -63 3 -3 21 -22 40 -42 l34 -37 -43
-151 c-41 -141 -46 -153 -89 -198 -210 -219 -347 -514 -395 -854 -3 -20 -8
-98 -12 -173 l-6 -138 75 42 c81 45 89 47 82 29 -35 -99 -40 -394 -9 -558 13
-72 54 -208 84 -280 17 -41 36 -87 42 -102 10 -28 23 -36 30 -19 2 5 31 40 65
77 34 38 75 85 92 104 16 19 31 32 33 30 2 -3 17 -36 33 -73 70 -169 216 -354
373 -472 93 -70 340 -202 352 -188 5 4 11 35 15 68 3 33 8 69 10 80 2 11 4 27
4 36 1 14 19 8 94 -31 88 -45 262 -115 356 -141 38 -11 46 -19 62 -58 60 -148
139 -246 294 -370 39 -30 100 -79 137 -109 37 -29 71 -51 76 -48 5 3 7 23 5
45 -2 23 0 41 3 41 3 0 26 -9 51 -21 l46 -21 39 22 c42 23 59 20 53 -10 -5
-24 -12 -27 150 66 61 35 132 82 160 104 l50 39 28 -56 c16 -30 32 -52 37 -47
41 44 199 285 231 353 23 47 44 92 48 99 3 8 42 28 86 47 44 18 115 51 157 73
l76 41 6 -37 c3 -20 8 -64 12 -97 3 -33 9 -63 13 -68 10 -11 201 85 301 151
104 69 258 222 324 322 48 73 126 227 126 249 0 19 18 12 39 -15 52 -66 172
-197 176 -192 17 17 107 264 120 328 2 8 8 37 14 64 33 144 34 441 1 555 -8
30 -8 32 13 25 12 -4 33 -14 47 -24 14 -10 40 -25 58 -34 l34 -17 -6 138 c-4
76 -8 152 -11 168 -3 17 -8 46 -11 65 -3 19 -8 46 -10 60 -9 48 -57 215 -65
224 -5 6 -9 17 -9 25 0 29 -116 248 -174 328 -31 44 -84 109 -116 144 -33 35
-63 75 -66 89 -22 89 -67 237 -76 247 -7 8 2 25 29 55 117 128 177 263 203
452 11 84 14 263 6 331 -3 22 -8 63 -11 91 -7 69 -40 234 -63 314 l-19 65
-114 -1 c-299 -1 -638 -77 -875 -196 -57 -28 -111 -59 -119 -68 -15 -16 -21
-17 -68 -4 -45 12 -90 20 -207 39 -176 27 -1093 28 -1237 1 -10 -2 -40 -7 -68
-10 -27 -4 -75 -14 -106 -21 -78 -20 -80 -20 -153 26 -117 73 -388 167 -561
195 -21 3 -47 8 -59 10 -11 2 -41 7 -66 10 -25 3 -56 7 -70 10 -14 2 -86 7
-161 10 l-136 6 -11 -28z m288 -139 c63 -6 241 -35 251 -41 4 -2 24 -6 45 -10
59 -9 264 -79 330 -112 33 -16 88 -51 123 -77 l64 -47 59 17 c33 9 68 18 79
20 12 2 28 6 37 9 9 3 40 8 67 12 28 3 59 8 70 10 60 13 252 19 595 19 506 0
643 -11 831 -66 81 -23 81 -23 105 -1 97 90 315 183 527 226 186 38 411 64
421 48 8 -13 44 -201 53 -277 15 -132 8 -342 -16 -435 -38 -154 -111 -269
-214 -338 -21 -14 -36 -30 -34 -37 61 -157 124 -393 132 -490 6 -79 6 -452 0
-535 -22 -303 -63 -447 -176 -610 -122 -177 -273 -260 -476 -260 l-82 0 -11
43 c-33 125 -90 284 -147 407 -81 176 -84 182 -66 175 10 -4 48 -12 84 -19
256 -50 529 75 638 291 63 125 71 358 18 492 -34 83 -66 96 -237 95 -120 0
-207 -5 -320 -19 -19 -2 -60 -7 -90 -10 -30 -3 -66 -8 -80 -10 -14 -2 -49 -7
-79 -10 -66 -8 -72 -9 -143 -28 -113 -30 -158 -75 -160 -164 -3 -95 14 -210
43 -297 20 -59 28 -101 25 -125 -3 -20 -8 -65 -12 -101 -3 -36 -8 -72 -9 -80
-1 -8 -6 -40 -9 -70 -11 -88 -47 -275 -55 -289 -7 -10 -23 -11 -77 -2 -116 17
-232 24 -399 23 -153 0 -214 -4 -335 -19 -109 -14 -111 -13 -126 37 -25 82
-56 268 -70 429 -3 41 -7 81 -9 90 -1 9 4 32 12 51 45 104 58 177 58 320 0
111 -13 140 -79 169 -72 32 -92 37 -286 66 -14 2 -52 7 -85 10 -100 9 -168 16
-200 20 -16 2 -86 7 -155 10 -191 11 -270 -13 -301 -91 -17 -44 -35 -190 -33
-270 2 -68 22 -162 47 -214 68 -145 216 -260 386 -300 93 -22 264 -16 334 12
15 6 29 9 31 7 2 -2 -9 -30 -25 -63 -65 -134 -156 -396 -174 -504 -5 -34 -13
-45 -33 -54 -39 -14 -217 -4 -277 17 -181 62 -323 223 -409 463 -32 90 -41
142 -61 377 -6 63 -5 447 1 540 6 97 51 270 128 485 3 10 -13 28 -47 54 -112
84 -187 222 -212 391 -13 88 -12 277 1 385 13 102 41 247 51 263 3 5 28 6 57
3 28 -3 76 -8 106 -11z m657 -1623 l22 -4 -22 -30 c-34 -46 -31 -141 6 -196
64 -98 212 -111 289 -25 42 46 59 132 38 187 -14 37 13 35 52 -5 30 -29 30
-32 25 -102 -6 -92 -34 -164 -83 -217 -72 -78 -167 -119 -289 -125 -275 -14
-465 163 -424 393 15 84 19 92 52 113 29 18 46 20 172 17 77 -1 150 -4 162 -6z
m2452 -10 c41 -22 56 -65 60 -165 5 -127 -52 -224 -166 -284 -252 -134 -558
-34 -622 203 -16 59 -16 146 0 172 15 24 77 47 149 57 90 12 106 14 184 20
l78 6 -22 -31 c-28 -39 -36 -105 -21 -153 48 -145 243 -174 326 -48 48 71 43
160 -13 224 -21 24 2 23 47 -1z m-3353 -240 c0 -103 2 -220 5 -261 l4 -73 -95
-55 c-52 -30 -115 -66 -139 -80 l-43 -25 5 43 c20 146 69 302 140 444 27 55
113 195 119 195 2 0 3 -84 4 -188z m3981 116 c54 -85 121 -225 152 -318 24
-74 60 -234 61 -267 l0 -23 -47 27 c-76 42 -104 58 -169 96 l-62 37 6 62 c3
35 6 152 6 260 1 109 2 198 4 198 1 0 23 -33 49 -72z m-3962 -520 c12 -99 17
-132 31 -198 77 -377 212 -592 429 -680 53 -22 75 -25 185 -25 90 1 140 6 179
18 30 9 55 16 56 14 1 -1 5 -51 8 -112 12 -206 76 -376 189 -500 33 -36 58
-65 55 -65 -2 0 -39 16 -82 35 -103 47 -200 105 -280 165 -35 28 -66 50 -68
50 -2 0 -4 -19 -6 -42 -1 -23 -4 -44 -5 -47 -2 -3 -7 -40 -11 -81 -4 -41 -9
-77 -11 -79 -8 -8 -168 107 -221 158 -168 163 -279 375 -297 566 -4 39 -9 84
-12 102 l-6 31 -45 -51 c-25 -29 -70 -79 -99 -112 -29 -33 -64 -73 -78 -90
-14 -16 -27 -27 -29 -25 -8 10 -28 98 -42 180 -9 55 -13 138 -11 235 5 211 31
314 137 537 24 50 30 53 34 16z m4002 -188 c0 -3 7 -31 17 -63 59 -195 57
-533 -5 -695 l-10 -26 -25 30 c-25 28 -95 109 -181 206 -24 27 -43 45 -44 41
0 -4 -2 -15 -3 -23 -2 -8 -6 -46 -10 -85 -10 -105 -32 -180 -86 -290 -55 -114
-103 -182 -196 -276 -60 -62 -229 -188 -238 -178 -4 4 -11 58 -22 169 -3 30
-7 61 -9 68 -3 8 -36 -11 -91 -51 -74 -56 -263 -161 -303 -169 -10 -2 -14 17
-17 82 l-4 85 39 18 c52 23 130 101 163 163 34 64 58 158 60 239 1 54 4 64 17
60 48 -15 135 -26 201 -26 227 1 407 144 517 411 27 66 66 191 79 253 6 33 33
197 38 237 3 19 5 37 6 40 2 6 108 -213 107 -220z m-2731 53 c2 -170 57 -357
125 -422 83 -81 247 -145 429 -167 24 -3 47 -7 49 -10 2 -2 5 -26 7 -53 4 -82
13 -155 35 -296 5 -33 9 -65 9 -71 0 -5 -30 -30 -66 -54 -119 -79 -412 -326
-400 -337 12 -12 214 70 366 149 369 192 394 201 530 202 86 1 100 -2 148 -27
l54 -28 -19 31 c-29 51 -92 109 -147 137 -44 23 -63 27 -136 26 -61 0 -101 -6
-142 -21 l-57 -20 -5 26 c-3 15 -8 45 -11 67 -3 22 -7 54 -10 70 -2 17 -7 69
-10 118 -6 80 -5 87 12 88 10 0 26 2 35 4 9 2 35 6 57 9 148 20 312 94 384
172 40 43 82 216 91 374 3 41 5 80 5 85 1 12 13 -10 91 -165 214 -427 242
-735 84 -910 -47 -52 -136 -95 -202 -99 -10 -1 -9 -7 2 -29 81 -157 56 -370
-67 -561 l-34 -54 -34 62 c-18 33 -36 61 -39 60 -3 0 -20 -32 -39 -71 -32 -67
-136 -188 -161 -188 -11 0 -12 6 -13 97 -1 35 -2 63 -3 63 -1 0 -13 -19 -27
-42 -37 -64 -99 -130 -160 -172 -53 -37 -55 -37 -85 -22 -48 25 -142 117 -181
176 l-36 55 -3 -77 c-2 -43 -6 -78 -10 -78 -10 0 -112 108 -138 145 -62 89
-101 206 -103 308 -1 32 -5 39 -28 47 -16 6 -35 15 -43 20 -8 6 -22 13 -30 17
-27 11 -94 67 -136 111 -214 227 -226 622 -34 1102 37 92 89 210 93 210 1 0 3
-26 3 -57z"/>
<path d="M2425 4580 c-106 -16 -127 -21 -217 -50 -146 -48 -266 -126 -350
-229 -36 -43 -88 -140 -103 -190 l-7 -24 33 26 c95 71 300 147 469 173 25 3
59 8 75 11 62 9 413 11 461 2 27 -5 65 -12 84 -14 152 -19 332 -82 458 -160
l42 -26 -18 49 c-37 96 -131 211 -227 278 -90 62 -229 117 -351 139 -101 19
-274 26 -349 15z"/>
<path d="M797 4543 c-2 -4 -12 -42 -21 -84 -32 -146 -25 -321 18 -423 14 -33
82 -116 95 -116 4 0 18 19 31 43 44 77 125 197 165 243 44 51 151 155 184 179
22 17 41 33 41 36 1 21 -204 93 -300 105 -25 3 -52 7 -60 9 -33 10 -149 15
-153 8z"/>
<path d="M4227 4544 c-1 -1 -27 -5 -58 -8 -122 -13 -359 -89 -359 -115 0 -4
19 -21 43 -38 102 -74 248 -246 330 -390 22 -40 44 -73 47 -73 16 0 72 71 94
121 39 83 53 240 32 354 -28 156 -24 150 -80 150 -26 1 -48 0 -49 -1z"/>
<path d="M2450 4162 c-208 -29 -392 -156 -435 -300 -6 -21 -3 -20 50 14 289
184 728 181 1001 -7 45 -31 46 -31 39 -8 -40 135 -202 254 -400 294 -35 7
-219 13 -255 7z"/>
</g>
</svg>
