<?xml version="1.0" encoding="UTF-8"?>
<svg width="32px" height="32px" viewBox="0 0 32 32" version="1.1" xmlns="http://www.w3.org/2000/svg" xmlns:xlink="http://www.w3.org/1999/xlink">
    <title>Icons / Deaths</title>
    <g id="Icons-/-Deaths" stroke="none" stroke-width="1" fill="none" fill-rule="evenodd">
        <path d="M16,0.64 C5.608,0.64 0,8.13729684 0,15.1915789 C0,18.6338358 1.6144,21.6249937 4.8,24.0971453 L4.8,31.36 L9.6,31.36 L9.6,26.5094737 L12.8,26.5094737 L12.8,31.36 L19.2,31.36 L19.2,26.5094737 L22.4,26.5094737 L22.4,31.36 L27.2,31.36 L27.2,24.0955284 C30.3856,21.6249937 32,18.6322189 32,15.1915789 C32,8.13729684 26.392,0.64 16,0.64 Z M9.6,18.4252632 C7.8064,18.4252632 6.4,16.6499705 6.4,14.3831579 C6.4,12.1163453 7.8064,10.3410526 9.6,10.3410526 C11.3936,10.3410526 12.8,12.1163453 12.8,14.3831579 C12.8,16.6499705 11.3936,18.4252632 9.6,18.4252632 Z M22.4,18.4252632 C20.6064,18.4252632 19.2,16.6499705 19.2,14.3831579 C19.2,12.1163453 20.6064,10.3410526 22.4,10.3410526 C24.1936,10.3410526 25.6,12.1163453 25.6,14.3831579 C25.6,16.6499705 24.1936,18.4252632 22.4,18.4252632 Z" id="Icon-Shape" fill="#F46D6B"></path>
    </g>
</svg>