<?xml version="1.0" encoding="UTF-8"?>
<svg width="32px" height="32px" viewBox="0 0 32 32" version="1.1" xmlns="http://www.w3.org/2000/svg" xmlns:xlink="http://www.w3.org/1999/xlink">
    <title>Icons / Infected</title>
    <g id="Icons-/-Infected" stroke="none" stroke-width="1" fill="none" fill-rule="evenodd">
        <path d="M27.3749388,18.9445001 C28.0088246,19.8547544 29.1623978,20.2482469 30.22236,19.9157768 C31.2823222,19.5833067 32.0024906,18.6020924 32,17.4937974 C32.0024906,16.3855024 31.2823222,15.404288 30.22236,15.0718179 C29.1623978,14.7393479 28.0088246,15.1328403 27.3749388,16.0430946 L26.1823163,16.0430946 C26.1823163,13.7654913 25.4551075,11.6909864 24.1461316,9.96465008 L26.0950513,8.02070839 C26.9095252,8.16577866 27.7385433,7.93366622 28.3639429,7.33887809 C29.3384027,6.33789319 29.3384027,4.72761314 28.3639429,3.71212121 C27.3603947,2.74015036 25.745991,2.74015036 24.7278987,3.71212121 C24.1315874,4.33592339 23.8988806,5.16282396 24.0443224,5.9752175 L22.0954027,7.91915919 C20.7573385,6.91817429 19.1865674,6.25085103 17.4558103,6.00423156 L17.4558103,3.9732477 C18.3683956,3.340981 18.7628957,2.19035429 18.4295742,1.13309949 C18.0962528,0.0758446932 17.1125258,-0.642484274 16.0013927,-0.639993543 C14.8902596,-0.642484274 13.9065326,0.0758446932 13.5732111,1.13309949 C13.2398897,2.19035429 13.6343898,3.340981 14.546975,3.9732477 L14.546975,6.00423156 C13.2379991,6.19282292 12.0162883,6.61352672 10.9109308,7.25183593 L9.29652723,4.94521855 C9.57286659,4.19085312 9.50014571,3.32043147 9.0056437,2.62409414 C8.61845884,2.07136483 8.02673079,1.69497648 7.36098055,1.57795132 C6.69523032,1.46092616 6.01015458,1.61287873 5.45686459,2.00029196 C4.30787463,2.79817847 4.0169911,4.37944448 4.83146499,5.52549965 C5.325967,6.236344 6.11135254,6.61352672 6.91128226,6.61352672 L8.6274951,9.05070734 C8.00209551,9.67450953 7.5075935,10.3708468 7.08581238,11.1397193 C6.14935693,10.7747796 5.08543355,10.9904257 4.36605134,11.6909864 C3.3915915,12.7064783 3.3915915,14.3022513 4.36605134,15.3177432 C4.78783246,15.709433 5.29687865,15.9415454 5.82046901,16.0430946 C5.82046901,16.8264741 5.92227824,17.5808395 6.08226419,18.3061909 L4.17697704,18.8139369 C3.56612162,18.3061909 2.72255938,18.0885855 1.87899713,18.3061909 C0.521500069,18.6747434 -0.279432844,20.0711721 0.0900633972,21.4252018 C0.459559638,22.7792315 1.85956432,23.5781187 3.21706138,23.2095662 C4.04607945,22.9774538 4.67147905,22.3681586 4.93327423,21.6137932 L7.12944491,21.0190051 C7.78393286,22.1650602 8.65658346,23.1805522 9.67467583,24.0219598 L8.07481639,26.9233653 C7.27488667,27.0394215 6.54767784,27.4891393 6.12589672,28.2580118 C5.69461758,29.0561725 5.72300332,30.0232004 6.20036129,30.7948255 C6.67771926,31.5664505 7.53152743,32.0254444 8.44016452,31.9989088 C9.34880162,31.9723731 10.174224,31.4643391 10.6055031,30.6661784 C11.0127401,29.9118129 10.9981959,29.0413913 10.6345915,28.3305469 L12.1908184,25.4726625 C13.3688967,25.9368874 14.6487842,26.1980139 16.0013927,26.1980139 L16.2631879,26.1980139 C16.0741136,26.5751966 16.0013927,27.0104074 16.0013927,27.4746323 C16.1177461,28.881814 17.3394569,29.92632 18.7356979,29.8247708 C20.1319389,29.7232216 21.1936638,28.4901242 21.0918545,27.0974496 C21.0336778,26.3720982 20.6700734,25.733789 20.146483,25.3130852 C20.8300593,25.0084376 21.4845473,24.6167479 22.0954027,24.16703 L25.49874,27.5616745 C25.3532983,28.374068 25.5860051,29.2009686 26.1823163,29.8247708 C27.2004087,30.7967416 28.8002682,30.7967416 29.8183605,29.8247708 C30.8364529,28.8527999 30.7928204,27.2135058 29.8183605,26.1980139 C29.1929609,25.6032258 28.3639429,25.3711133 27.549469,25.5161836 L24.1461316,22.1215392 C24.8587963,21.1785824 25.411475,20.1050623 25.7605352,18.9445001 L27.3749388,18.9445001 M13.8197662,16.0430946 C12.6125995,16.0430946 11.6381397,15.0711238 11.6381397,13.8670405 C11.6381397,12.6629572 12.6125995,11.6909864 13.8197662,11.6909864 C15.0269328,11.6909864 16.0013927,12.6629572 16.0013927,13.8670405 C16.0013927,15.0711238 15.0269328,16.0430946 13.8197662,16.0430946 M18.910228,20.3952029 C18.1102983,20.3952029 17.4558103,19.7423866 17.4558103,18.9445001 C17.4558103,18.1466136 18.1102983,17.4937974 18.910228,17.4937974 C19.7101577,17.4937974 20.3646457,18.1466136 20.3646457,18.9445001 C20.3646457,19.7423866 19.7101577,20.3952029 18.910228,20.3952029 Z" id="Icon-Shape" fill="#FAA05A" fill-rule="nonzero"></path>
    </g>
</svg>