<svg viewBox="0 0 20 20" xmlns="http://www.w3.org/2000/svg"><g><rect x="-1" y="-1" width="20" height="20" fill="none"/></g>
<g><path d="m-2e-6 0v20.02h20.02v-20.02h-20.02zm16.633 4.7414-1.0725 1.0278c-0.093845 0.071501-0.13853 0.18769-0.12066 0.29941v7.5657c-0.017875 0.11619 0.026813 0.23238 0.12066 0.29941l1.0502 1.0278v0.22791h-5.2732v-0.21897l1.0859-1.0546c0.10725-0.10725 0.10725-0.13853 0.10725-0.29941v-6.1178l-3.0209 7.6685h-0.40666l-3.5169-7.6685v5.1391c-0.031282 0.2145 0.044688 0.43347 0.19663 0.58988l1.4121 1.7115v0.22791h-4.013v-0.22791l1.4121-1.7115c0.15194-0.15641 0.21897-0.37538 0.18322-0.58988v-5.9435c0.017875-0.16534-0.044688-0.32622-0.16981-0.43794l-1.2557-1.5149v-0.22791h3.9013l3.012 6.6138 2.65-6.6093h3.718v0.22344z" fill="currentColor" stroke="null"/>
</g></svg>
